<?xml version="1.0" encoding="UTF-8" standalone="no"?>
<!DOCTYPE svg PUBLIC "-//W3C//DTD SVG 1.1//EN" "http://www.w3.org/Graphics/SVG/1.1/DTD/svg11.dtd">
<svg width="100%" height="100%" viewBox="0 0 484 655" version="1.1" xmlns="http://www.w3.org/2000/svg" xmlns:xlink="http://www.w3.org/1999/xlink" xml:space="preserve" xmlns:serif="http://www.serif.com/" style="fill-rule:evenodd;clip-rule:evenodd;stroke-linejoin:round;stroke-miterlimit:2;">
    <g transform="matrix(1,0,0,1,-615,-0)">
        <g id="Fondo">
        </g>
        <g id="lapiz" transform="matrix(0.855124,0,0,1,1226.413428,-3)">
            <rect x="-715" y="3" width="566" height="655" style="fill:none;"/>
            <clipPath id="_clip1">
                <rect x="-715" y="3" width="566" height="655"/>
            </clipPath>
            <g clip-path="url(#_clip1)">
                <g transform="matrix(2.765589,0,0,2.364921,-907.049645,-868.542887)">
                    <path d="M72.873,410.514C72.951,406.042 73.201,401.337 73.294,400.483C73.997,394.001 73.706,393.997 74.129,387.473C75.019,373.718 74.842,373.711 74.92,372.515C75.131,369.294 76.829,367.031 80.328,369.724C81.359,370.518 82.651,371.512 92.631,380.351C97.058,384.271 100.846,387.791 102.617,389.369C118.727,403.727 118.64,403.805 120.097,404.986C121.098,405.798 127.883,412.193 128.282,412.69C128.819,413.358 129.385,414.063 132.18,422.67C135.455,432.755 139.686,436.567 142.678,448.39C142.854,449.085 142.838,449.235 143.556,449.279C144.816,449.356 144.512,448.782 144.562,447.522C144.575,447.192 144.571,446.86 144.591,446.53C144.992,439.81 148.118,438.598 144.431,436.613C143.636,436.185 139.328,433.866 136.781,428.307C132.446,418.848 133.832,414.342 134.222,412.431C135.711,405.136 142.362,399.617 144.487,398.478C154.254,393.243 161.729,396.018 163.502,395.982C165.918,395.933 167.598,392.568 171.478,390.462C175.536,388.259 177.144,387.817 181.483,387.339C182.789,387.195 191.394,386.245 197.66,390.236C206.422,395.815 204.825,398.522 207.265,400.764C209.133,402.48 219.281,402.551 226.848,415.297C234.343,427.922 230.623,439.33 230.135,441.533C229.937,442.425 229.808,442.624 230.636,443C231.273,443.29 233.113,442.233 234.584,441.842C243.623,439.442 251.869,439.93 258.403,442.732C269.398,447.447 275.271,459.87 270.437,471.472C269.422,473.908 269.671,473.99 270.3,476.551C270.571,477.654 272.183,484.213 268.899,490.68C262.949,502.399 251.781,503.909 249.459,504.295C246.5,504.788 246.873,506.14 244.602,510.559C242.523,514.604 237.749,519.123 232.354,521.085C226.87,523.079 221.054,522.424 218.459,521.635C212.445,519.808 212.598,519.137 211.443,519.251C210.259,519.368 210.32,520.948 209.949,523.578C209.25,528.537 209.145,528.516 208.93,533.531C208.54,542.645 209.285,546.468 210.243,550.566C212.385,559.738 223.951,584.382 227.098,590.696C231.49,599.506 231.407,599.52 235.574,608.463C237.481,612.555 240.532,616.495 235.337,618.043C232.993,618.742 232.488,618.347 232.387,619.468C232.28,620.666 232.811,620.84 235.179,622.866C236.169,623.712 246.431,632.492 247.508,633.491C249.744,635.567 248.755,637.248 248.498,637.498C247.471,638.494 247.225,638.236 212.496,638.237C208.888,638.237 208.251,638.067 206.86,633.394C205.406,628.509 205.837,627.825 204.61,627.891C203.491,627.951 203.837,628.476 203.289,629.274C198.026,636.949 181.859,644.447 172.482,645.304C152.457,647.132 149.332,635.331 147.438,630.524C143.003,619.272 143.302,619.151 142.742,618.263C142.381,617.692 142.357,617.575 141.563,617.665C140.358,617.802 140.771,618.298 140.418,619.46C140.328,619.756 140.267,620.061 140.168,620.355C138.256,626.021 135.891,624.438 134.499,624.451C132.125,624.472 132.908,625.66 130.641,632.55C129.419,636.263 128.124,635.874 121.496,635.801C95.201,635.513 91.465,635.87 90.216,634.872C87.232,632.486 91.572,630.202 96.629,625.647C104.397,618.651 104.689,618.999 105.266,618.3C105.359,618.187 106.067,617.328 105.509,616.492C104.984,615.706 100.75,615.999 99.738,613.427C99.108,611.826 101.127,608.426 108.331,593.42C114.53,580.508 114.382,580.454 120.658,567.577C122.065,564.69 121.657,564.506 120.475,561.51C115.461,548.794 115.591,548.751 115.146,547.65C113.828,544.386 111.104,545.094 108.59,541.441C107.256,539.502 107.974,538.38 105.858,536.158C102.415,532.543 102.901,530.714 102.864,528.5C102.817,525.768 101.001,524.562 101.488,521.498C101.888,518.978 103.808,518.707 101.652,513.43C100.629,510.926 98.946,512.106 97.497,512.078C89.85,511.931 87.892,505.426 87.605,504.469C86.522,500.87 84.424,500.878 83.847,495.464C83.474,491.957 81.08,490.813 82.468,486.49C84.34,480.657 87.734,480.253 87.43,477.51C87.309,476.422 72.59,441.247 71.54,436.492C70.903,433.607 72.61,423.418 72.873,410.514ZM194.124,413.481C194.174,413.977 193.825,415.608 195.271,416.803C197.087,418.303 203.068,417.31 203.343,408.502C203.481,404.084 197.959,407.345 197.555,407.584C197.362,407.698 196.297,408.327 195.543,409.531C194.04,411.93 194.247,412.879 194.124,413.481ZM104.415,439.158C101.462,439.723 101.461,440.027 98.499,439.542C95.409,439.038 96.771,441.24 97.943,444.324C98.592,446.032 98.72,445.965 106.249,465.597C107.1,467.816 114.503,486.583 118.64,497.442C118.883,498.081 118.947,498.051 121.862,505.362C123.17,508.644 123.799,508.184 126.73,510.147C127.122,510.409 131.264,513.007 132.341,513.755C135.729,516.105 137.754,516.698 143.57,515.909C146.444,515.52 145.608,514.226 144.185,510.622C139.814,499.554 140.111,499.454 135.538,488.485C133.547,483.706 133.22,482.051 126.158,464.642C125.376,462.715 125.664,462.605 116.677,440.432C116.487,439.964 115.306,437.05 114.493,434.503C114.431,434.309 113.811,432.364 112.643,432.75C112.471,432.806 110.815,435.479 109.475,436.47C106.28,438.833 105.794,438.641 104.415,439.158ZM238.467,498.588C240.046,499.081 242.671,500.476 242.456,496.502C242.414,495.728 242.07,489.343 237.61,488.118C235.006,487.402 230.7,489.827 234.426,495.556C235.417,497.081 238.104,498.409 238.467,498.588ZM110.063,500.521C109.996,500.911 110.154,503.14 107.883,505.833C105.771,508.336 105.121,508.516 106.335,511.568C107.982,515.711 107.683,516.744 113.447,517.82C115.731,518.247 116.921,518.777 116.65,516.482C116.631,516.323 116.355,516.398 116.128,514.543C115.575,510.017 118.727,510.111 117.433,506.524C113.566,495.8 107.074,480.401 103.129,469.635C100.73,463.09 98.904,459.728 93.398,444.543C93.314,444.312 92.403,441.802 92.266,441.693C92.156,441.605 90.739,441.533 90.567,441.617C89.924,441.931 88.176,444.663 82.503,444.562C81.56,444.545 81.476,444.303 80.751,444.895C79.479,445.935 81.015,447.075 87.219,463.611C91.852,475.961 92.096,476.34 93.487,476.59C94.394,476.753 100.729,475.328 103.117,480.669C103.242,480.947 103.329,481.241 103.447,481.522C104.304,483.56 105.953,484.201 106.343,487.513C106.586,489.578 106.51,489.641 107.727,491.339C109.719,494.118 108.463,494.858 109.58,498.472C109.988,499.791 110.011,500.301 110.063,500.521ZM108.735,429.582C109.17,427.609 109.183,427.624 109.205,427.451C109.403,425.897 109.228,424.827 109.245,424.491C109.257,424.26 109.35,422.407 110.694,421.987C112.228,421.506 113.593,422.785 114.428,423.577C119.651,428.535 123.895,423.628 124.142,419.472C124.417,414.829 121.598,412.697 119.823,411.152C115.993,407.82 99.094,392.416 98.279,391.771C95.778,389.794 93.999,393.592 91.246,395.048C85.057,398.322 81.423,398.24 80.48,398.379C77.968,398.75 78.094,399.906 77.783,406.516C77.091,421.251 76.949,421.239 76.9,422.521C76.484,433.428 75.917,433.529 76.765,435.383C79.657,441.704 85.757,440.547 87.559,437.542C89.022,435.103 88.7,433.292 88.797,432.519C88.834,432.219 89.213,429.181 91.435,429.809C93.785,430.474 94.475,433.734 99.436,434.811C99.855,434.902 102.095,435.388 104.728,433.953C107.467,432.46 107.726,431.829 108.735,429.582ZM174.192,574.622C175.344,577.578 175.284,577.577 176.458,580.517C177.887,584.098 178.317,586.349 179.507,586.447C180.702,586.546 183.182,584.34 186.897,580.919C189.741,578.299 188.165,577.376 184.655,568.443C171.565,535.133 171.552,535.096 171.196,534.813C170.409,534.186 168.807,534.757 168.613,534.826C161.983,537.189 159.893,536.697 160.451,539.51C160.815,541.347 161.137,541.231 168.901,561.349C169.312,562.415 171.921,569.174 174.192,574.622ZM149.474,603.154C146.964,603.26 146.987,603.21 144.476,603.223C143.509,603.228 143.324,602.957 142.801,603.761C142.445,604.309 142.813,605.257 142.86,605.378C143.21,606.277 146.553,614.868 147.421,616.545C147.936,617.54 148.938,619.476 161.409,617.065C168.909,615.615 175.287,612.877 176.444,612.38C177.83,611.785 186.651,607.999 192.484,602.483C196.954,598.256 196.494,597.352 194.079,591.692C191.662,586.026 191.802,585.94 191.425,585.562C191.2,585.336 189.988,584.944 189.785,584.994C189.769,584.998 187.867,586.995 184.439,589.414C179.796,592.692 169.044,599.255 155.437,602.223C150.473,603.306 150.438,603.057 149.474,603.154ZM259.398,477.299C260.49,476.573 260.573,476.698 261.636,475.609C261.892,475.347 264.193,472.991 259.476,471.571C252.733,469.542 252.507,476.269 255.483,477.532C257.371,478.334 257.428,477.882 259.398,477.299ZM165.203,405.438C165.184,406.127 165.011,406.806 164.992,407.495C164.878,411.755 170.163,416.086 173.125,413.136C173.904,412.359 175.267,409.185 172.294,405.673C171.607,404.862 168.394,401.769 166.583,402.649C166.494,402.693 165.842,403.424 165.739,403.625L165.203,405.438ZM160.454,622.199C152.239,623.624 151.705,622.26 150.685,623.635C150.286,624.173 150.69,625.29 150.738,625.425C153.548,633.206 154.96,634.79 155.552,635.454C157.863,638.046 164.431,644.258 181.342,638.073C193.885,633.485 198.286,627.737 199.329,626.374C199.977,625.527 203.813,620.517 202.677,613.473C202.307,611.182 200.199,607.709 199.37,605.569C199.091,604.847 199.309,604.607 198.544,604.421C196.952,604.032 197.191,604.908 193.697,607.746C189.559,611.106 180.814,616.397 173.539,618.626C164.754,621.318 164.75,621.228 160.454,622.199ZM200.236,445.498C200.466,446.924 200.16,448.595 203.244,450.859C203.531,451.071 205.572,452.658 209.474,452.979C211.711,453.164 215.161,452.322 215.6,451.594C216.198,450.603 216.763,449.239 215.09,444.672C214.256,442.392 210.272,436.969 204.39,439.232C204.078,439.352 202.33,440.242 201.53,441.521C200.078,443.844 200.322,444.95 200.236,445.498ZM247.158,494.532C247.177,494.849 247.381,498.216 247.549,498.478C248.713,500.285 254.497,498.066 257.306,496.202C260.766,493.904 262.368,491.456 262.392,491.423C265.743,486.843 266.088,480.781 266.013,480.578C265.866,480.185 264.736,479.556 264.55,479.63C264.39,479.694 262.35,482.465 257.51,482.722C248.195,483.217 245.526,470.355 254.321,467.084C255.238,466.743 258.72,465.529 263.613,468.287C264.603,468.845 264.591,469.275 265.642,468.829C266.48,468.474 266.667,467.342 266.765,466.558C266.787,466.378 268.479,459.356 263.786,453.287C253.63,440.155 233.256,444.968 226.071,451.016C221.272,455.056 221.475,455.801 221.113,457.418C218.463,469.249 207.833,473.835 207.758,473.885C204.802,475.859 200.688,480.062 200.49,481.498C200.133,484.083 202.33,482.985 206.79,489.305C207.878,490.848 210.475,495.856 211.15,499.56C213.144,510.499 210.11,511.746 213.607,514.342C215.989,516.111 228.352,521.401 237.61,511.602C239.065,510.061 241.862,506.08 241.104,504.806C240.511,503.81 235.232,503.682 231.41,499.583C224.347,492.008 229.565,480.553 239.442,483.674C244.278,485.202 245.944,489.873 246.204,490.603C246.889,492.523 246.804,492.529 247.158,494.532ZM88.478,493.498C88.064,497.355 87.799,497.702 90.506,500.494C92.134,502.173 91.477,502.499 92.06,504.61C92.901,507.651 96.96,508.132 98.56,507.745C100.817,507.2 106.769,502.38 105.241,500.797C104.368,499.892 101.213,501.682 100.36,502.271C98.663,503.442 98.766,503.566 98.128,504.008C96.342,505.247 94.772,504.484 94.531,503.488C94.088,501.656 95.525,500.699 96.212,500.136C99.561,497.397 102.391,496.906 103.505,496.51C105.458,495.814 105.315,492.786 101.52,493.603C95.784,494.839 94.282,498.769 92.51,498.261C92.232,498.182 89.535,497.408 91.754,494.727C94.948,490.866 101.11,489.363 101.33,489.233C102.73,488.401 103.042,485.859 99.504,486.529C94.714,487.437 92.909,489.043 92.453,489.449C89.772,491.835 89.246,491.429 88.673,492.525C88.52,492.818 88.631,493.205 88.478,493.498ZM128.269,567.59C130.377,573.057 130.528,572.986 132.483,578.507C133.471,581.297 139.67,596.721 139.98,597.145C140.799,598.268 143.204,598.432 143.504,598.453C144.797,598.541 150.63,598.588 151.704,597.791C153.326,596.588 152.395,596.054 147.702,583.423C147.562,583.049 141.17,566.895 140.602,565.458C140.146,564.306 138.261,559.123 135.543,552.483C133.251,546.883 133.131,544.34 130.564,544.822C130.24,544.883 130.285,545.041 126.551,545.776C121.975,546.677 121.451,545.975 120.879,546.819C120.193,547.83 122.427,551.802 124.709,558.423C126.059,562.34 127.964,566.865 128.269,567.59ZM128.348,425.654C127.917,425.686 127.959,425.824 127.542,425.855C126.819,425.909 126.831,425.743 126.776,425.772C126.557,425.889 126.563,426.222 126.443,426.44C125.831,427.554 123.973,428.724 123.725,428.879C121.3,430.406 120.157,430.097 119.433,430.295C116.725,431.035 118.96,432.811 124.623,448.455C126.154,452.684 129.565,460.545 131.734,466.415C135.246,475.92 137.011,479.819 138.442,483.523C138.661,484.091 138.667,484.083 141.254,490.598C150.107,512.891 149.554,513.715 151.499,514.108C152.278,514.265 159.817,511.062 160.575,510.596C162.127,509.643 160.452,506.588 160.11,505.64C158.658,501.609 158.717,501.61 157.086,497.673C150.825,482.552 151.222,482.417 146.721,471.414C141.263,458.069 139.67,453.099 135.216,442.615C133.607,438.827 133.483,438.103 131.598,433.462C130.002,429.533 129.944,429.579 128.348,425.654ZM118.16,584.349C114.744,591.742 106.412,608.751 106.245,609.431C105.716,611.578 106.509,611.539 108.598,612.221C111.485,613.163 133.138,619.31 133.522,619.375C136.01,619.796 136.203,617.913 138.329,612.433C139.836,608.547 138.822,608.451 137.323,604.577C135.618,600.171 135.327,600.159 131.784,590.398C127.829,579.5 126.727,578.171 125.338,573.594C125.116,572.865 125.204,572.68 124.466,572.597C123.502,572.49 123.518,572.853 123.272,573.273C122.779,574.116 123.058,574.229 118.16,584.349ZM145.468,540.158C144.836,540.202 139.341,540.591 137.735,541.828C135.954,543.2 138.196,546.543 140.637,553.447C141.982,557.251 150.868,579.021 156.541,594.483C157.319,596.604 158.135,597.091 164.521,594.555C168.319,593.047 173.699,590.366 174.086,590.003C175.673,588.517 173.442,585.271 169.688,575.428C166.905,568.13 167.042,568.087 164.259,561.606C162.055,556.474 156.318,540.379 155.501,539.5C154.337,538.247 154.026,539.247 145.468,540.158ZM221.541,447.311L222.437,447.43C231.254,430.841 224.448,413.724 211.415,407.706C207.787,406.031 208.215,408.971 208.17,410.473C207.904,419.216 200.16,423.853 195.485,422.555C188.307,420.562 187.702,412.607 190.19,408.341C192.264,404.786 193.073,404.489 195.226,403.081C199.039,400.585 200.113,402.156 200.768,400.623C201.198,399.616 200.914,399.579 200.172,398.754C199.064,397.521 192.508,390.227 180.471,392.337C175.698,393.174 170.829,396.677 170.787,396.747C170.717,396.864 170.662,398.205 170.722,398.318C170.839,398.544 172.396,399.346 172.548,399.424C177.371,401.909 180.964,409.404 177.806,414.665C173.069,422.558 164.972,418.208 162.385,414.588C157.144,407.256 162.056,402.112 160.45,400.566C160.005,400.137 153.478,399.106 148.61,401.71C136.994,407.924 135.994,420.632 142.94,429.109C145.936,432.766 152.93,435.409 154.392,434.359C155.278,433.724 154.917,433.503 154.429,432.522C154.25,432.161 153.154,429.954 153.681,427.535C155.783,417.889 170.547,422.25 166.934,431.655C166.381,433.094 165.937,433.088 166.418,434.567C166.648,435.275 166.842,435.096 167.575,435.196C172.862,435.917 173.965,435.845 174.522,435.808C184.224,435.169 187.132,430.331 189.638,431.087C191.138,431.539 192.085,434.381 188.464,436.441C182.985,439.558 179.408,440.036 178.449,440.208C167.712,442.136 163.771,437.71 159.586,438.794C153.732,440.31 153.41,438.897 151.752,439.918C150.926,440.427 147.862,447.545 149.896,459.435C152.053,472.041 159.766,475.569 162.279,478.665C163.567,480.252 162.467,481.139 162.304,481.27C160.638,482.613 158.109,479.585 156.513,479.574C155.142,479.564 155.611,480.267 156.148,481.535C159.139,488.591 161.68,496.521 163.721,501.408C165.862,506.532 166.071,507.915 168.565,506.625C171.308,505.207 176.129,501.321 176.754,500.816C177.153,500.495 179.813,498.351 181.768,496.831C182.076,496.591 185.641,493.819 186.629,496.434C187.286,498.173 185.964,499.112 184.395,500.361C177.126,506.15 177.149,506.176 169.298,511.157C162.272,515.614 151.104,520.191 139.502,520.562C133.172,520.765 124.751,513.974 124.374,513.67C120.207,510.317 120.442,514.43 120.898,515.32C121.704,516.891 121.907,516.714 123.271,517.806C123.547,518.027 126.845,520.669 124.262,522.105C123.382,522.594 119.211,522.963 115.493,522.628C110.707,522.197 108.788,521.317 108.555,521.261C108.32,521.204 105.723,520.576 105.793,522.5C105.867,524.547 109.019,525.667 109.387,525.797C113.305,527.189 113.392,526.772 117.538,527.205C120.349,527.497 120.036,529.723 119.387,530.391C118.667,531.131 115.826,531.088 115.511,531.083C109.701,530.995 107.579,528.454 107.403,530.473C107.321,531.407 107.376,531.435 107.999,532.123C110.729,535.135 117.501,534.839 118.611,535.195C120.397,535.769 121.319,539.04 116.495,538.833C114.948,538.766 115.002,538.504 113.481,538.403C112.432,538.333 112.183,538.494 112.327,539.53C112.402,540.067 114.127,541.435 116.442,541.78C125.067,543.062 132.392,539.425 133.643,538.804C139.47,535.911 139.909,536.237 144.52,535.694C157.483,534.167 160.059,533.273 172.318,528.06C186.466,522.043 191.715,515.809 194.6,514.825C195.878,514.388 197.383,515.151 197.313,516.49C197.179,519.052 185.833,526.296 180.334,529.17C177.078,530.872 175.448,531.096 176.744,534.411C182.905,550.178 182.891,550.161 183.462,551.515C186.935,559.753 189.106,567.01 192.536,574.484C193.305,576.159 204.052,603.282 204.781,605.405C206.813,611.32 207.509,611.235 207.374,617.502C207.337,619.25 206.852,619.78 208.51,620.298C208.638,620.338 210.411,619.868 210.575,619.825C219,617.594 231.638,614.736 232.19,614.115C232.931,613.281 231.997,611.522 231.892,611.324C228.315,604.583 228.355,604.577 225.071,597.695C210.159,566.449 206.34,557.082 204.844,549.438C204.651,548.452 203.891,540.549 203.868,539.495C203.549,524.711 207.678,511.557 207.02,505.532C205.934,495.585 203.141,492.476 202.508,491.495C200.148,487.841 194.165,485.638 194.875,481.557C195.779,476.363 202.705,471.312 203.608,470.654C208.657,466.972 211.812,467.044 214.941,459.595C215.306,458.727 215.638,458.654 215.065,457.885C214.216,456.745 213.952,457.495 212.545,457.799C212.07,457.902 209.439,458.471 206.466,457.633C190.933,453.257 194.568,439.003 200.532,435.549C209.27,430.488 216.719,436.936 218.544,440.476C220.784,444.819 220.528,446.897 220.793,447.314C220.926,447.524 221.407,447.1 221.541,447.311ZM168.492,447.967C168.851,448.125 169.272,448.106 169.631,448.263C171.218,448.959 171.133,452.161 166.457,453.287C160.548,454.71 152.839,448.476 155.67,445.659C157.175,444.162 159.287,446.268 159.51,446.49C162.583,449.556 163.602,449.242 168.492,447.967ZM171.435,466.861C174.351,467.038 174.967,467.703 180.344,465.157C183.58,463.624 185.762,467.112 181.441,469.397C169.87,475.515 158.713,465.65 161.664,462.675C163.217,461.108 165.894,464.07 166.495,464.506C169.559,466.732 169.729,466.389 171.435,466.861ZM189.403,458.129C186.185,458.688 183.771,459.233 179.497,456.504C176.036,454.294 176.043,450.583 178.502,450.559C181.729,450.528 181.321,455.701 188.512,453.534C193.288,452.094 193.18,456.511 190.599,457.687C190.212,457.863 189.79,457.953 189.403,458.129ZM105.498,630.933C125.141,630.94 125.407,631.59 126.519,630.516C126.645,630.395 128.923,624.378 127.878,623.209C127.048,622.28 121.983,621.089 117.461,619.626C112.564,618.041 112.1,618.506 109.614,620.635C106.641,623.18 106.696,623.21 103.716,625.753C99.149,629.649 98.771,629.227 98.654,629.606C98.583,629.834 99.169,631.078 99.569,631.144C100.037,631.222 100.03,630.963 105.498,630.933ZM217.413,623.122C214.276,623.88 210.239,624.49 209.849,625.616C209.405,626.9 211.716,632.882 211.952,633.151C212.65,633.943 212.849,633.879 231.504,633.856C236.568,633.85 236.555,633.955 237.478,634.06C238.173,634.139 238.239,634.345 238.785,633.889C240.518,632.439 239.026,632.185 237.261,630.776C233.557,627.817 226.877,621.772 225.529,621.401C224.733,621.181 224.674,621.075 217.413,623.122ZM162.611,429.528C162.573,429.178 162.724,428.824 162.687,428.474C162.351,425.331 157.709,426.153 158.466,429.509C158.938,431.6 161.164,432.228 162.259,430.352C162.409,430.094 162.46,429.786 162.611,429.528ZM87.074,491.74C87.226,491.304 87.151,490.809 87.303,490.373C87.402,490.09 87.7,489.909 87.81,489.63C87.906,489.385 87.812,489.091 87.905,488.845C87.987,488.626 88.602,487.747 88.667,487.654C91.908,483.017 97.651,483.248 98.311,482.342C98.384,482.242 98.944,481.474 98.254,480.803C97.855,480.414 92.921,479.362 88.652,483.64C85.313,486.987 85.541,489.502 85.907,490.265C86.167,490.807 86.548,491.288 86.613,491.371C86.804,491.612 86.888,491.504 87.074,491.74Z" style="fill:rgb(29,60,233);"/>
                </g>
                <g transform="matrix(2.765589,0,0,2.364921,-907.049645,-868.542887)">
                    <path d="M189.403,458.129C186.185,458.688 183.771,459.233 179.497,456.504C176.036,454.294 176.043,450.583 178.502,450.559C181.729,450.528 181.321,455.701 188.512,453.534C193.288,452.094 193.18,456.511 190.599,457.687C190.212,457.863 189.79,457.953 189.403,458.129ZM168.492,447.967C168.851,448.125 169.272,448.106 169.631,448.263C171.218,448.959 171.133,452.161 166.457,453.287C160.548,454.71 152.839,448.476 155.67,445.659C157.175,444.162 159.287,446.268 159.51,446.49C162.583,449.556 163.602,449.242 168.492,447.967ZM171.435,466.861C174.351,467.038 174.967,467.703 180.344,465.157C183.58,463.624 185.762,467.112 181.441,469.397C169.87,475.515 158.713,465.65 161.664,462.675C163.217,461.108 165.894,464.07 166.495,464.506C169.559,466.732 169.729,466.389 171.435,466.861Z" style="fill:rgb(29,60,233);"/>
                </g>
                <g transform="matrix(2.765589,0,0,2.364921,-907.049645,-868.542887)">
                    <path d="M171.435,466.861C174.351,467.038 174.967,467.703 180.344,465.157C183.58,463.624 185.762,467.112 181.441,469.397C169.87,475.515 158.713,465.65 161.664,462.675C163.217,461.108 165.894,464.07 166.495,464.506C169.559,466.732 169.729,466.389 171.435,466.861Z" style="fill:rgb(29,60,233);"/>
                </g>
                <g transform="matrix(2.765589,0,0,2.364921,-907.049645,-868.542887)">
                    <path d="M168.492,447.967C168.851,448.125 169.272,448.106 169.631,448.263C171.218,448.959 171.133,452.161 166.457,453.287C160.548,454.71 152.839,448.476 155.67,445.659C157.175,444.162 159.287,446.268 159.51,446.49C162.583,449.556 163.602,449.242 168.492,447.967Z" style="fill:rgb(29,60,233);"/>
                </g>
                <g transform="matrix(2.765589,0,0,2.364921,-907.049645,-868.542887)">
                    <path d="M189.403,458.129C186.185,458.688 183.771,459.233 179.497,456.504C176.036,454.294 176.043,450.583 178.502,450.559C181.729,450.528 181.321,455.701 188.512,453.534C193.288,452.094 193.18,456.511 190.599,457.687C190.212,457.863 189.79,457.953 189.403,458.129Z" style="fill:rgb(29,60,233);"/>
                </g>
            </g>
        </g>
    </g>
</svg>
