<?xml version="1.0" encoding="UTF-8" standalone="no"?>
<!DOCTYPE svg PUBLIC "-//W3C//DTD SVG 1.1//EN" "http://www.w3.org/Graphics/SVG/1.1/DTD/svg11.dtd">
<svg width="100%" height="100%" viewBox="0 0 593 655" version="1.1" xmlns="http://www.w3.org/2000/svg" xmlns:xlink="http://www.w3.org/1999/xlink" xml:space="preserve" xmlns:serif="http://www.serif.com/" style="fill-rule:evenodd;clip-rule:evenodd;stroke-linejoin:round;stroke-miterlimit:2;">
    <g transform="matrix(1,0,0,1,-618.699973,-691.691178)">
        <g id="Fondo">
        </g>
        <g id="Teclado" transform="matrix(1.047703,0,0,1,1367.807747,688.691178)">
            <rect x="-715" y="3" width="566" height="655" style="fill:none;"/>
            <clipPath id="_clip1">
                <rect x="-715" y="3" width="566" height="655"/>
            </clipPath>
            <g clip-path="url(#_clip1)">
                <g transform="matrix(2.282607,0,0,2.391494,-1424.70148,-896.563136)">
                    <path d="M310.917,474.503C311.191,470.565 311.474,469.302 312.629,466.553C313.86,463.624 312.813,463.545 311.39,457.525C309.464,449.379 313.953,438.896 321.44,433.422C334.246,424.059 348.374,426.253 362.519,432.458C364.704,433.416 364.744,433.789 365.433,433.355C366.36,432.771 366.189,432.593 366.068,431.517C365.996,430.877 365.568,427.09 366.28,423.46C367.292,418.302 369.199,406.225 380.218,397.149C390.329,388.821 400.313,389.224 401.608,388.76C403.636,388.035 405.694,382.613 412.419,379.335C421.21,375.051 427.302,376.138 431.469,376.705C439.718,377.828 446.071,383.082 447.135,383.962C453.428,389.166 451.791,391.989 456.51,392.089C458.119,392.124 468.036,392.336 475.653,398.289C489.906,409.431 487.979,429.901 475.76,439.828C469.119,445.224 465.586,443.288 465.343,446.489C465.328,446.691 465.7,450.977 465.842,451.381C466.444,453.096 470.933,452.614 475.306,455.785C488.854,465.607 485.587,486.695 474.539,492.569C470.755,494.58 471.012,495.083 470.723,497.53C470.308,501.046 468.498,503.807 469.526,504.438C469.847,504.636 472.392,503.903 472.539,503.876C478.062,502.85 477.994,502.593 483.541,501.714C484.318,501.591 484.848,501.364 487.569,500.865C507.01,497.3 545.724,489.665 547.485,489.404C552.372,488.678 554.483,487.846 556.251,488.892C558.728,490.356 556.549,494.752 555.937,496.646C555.502,497.995 550.992,511.975 550.429,513.475C545.579,526.401 544.318,531.461 542.467,536.488C536.778,551.942 534.82,559.918 533.446,561.454C531.262,563.896 522.433,564.517 521.684,565.656C520.842,566.937 523.603,568.738 525.147,573.614C530.807,591.49 515.233,602.137 512.308,604.211C505.58,608.982 490.711,614.923 487.354,616.108C475.461,620.305 474.817,619.795 474.365,621.451C473.819,623.45 473.396,626.994 473.338,627.479C472.98,630.473 471.723,637.43 471.707,637.535C470.466,645.763 470.65,649.976 467.493,650.037C467.017,650.047 465.361,650.079 462.934,646.209C459.263,640.358 459.343,640.319 459.016,639.816C457.042,636.777 456.948,636.856 455.036,633.785C453.315,631.021 453.419,630.961 453.242,630.741C452.564,629.896 451.665,630.485 451.551,630.56C451.175,630.806 450.805,632.915 449.578,634.574C448.539,635.978 447.475,635.793 435.444,632.717C429.763,631.265 428.684,630.322 426.266,632.184C423.746,634.125 419.878,636.829 419.315,637.222C407.87,645.222 407.909,645.459 406.506,645.559C402.35,645.856 403.949,639.385 404.495,630.5C404.765,626.116 405.31,624.973 401.591,624.131C401.099,624.019 396.987,623.087 395.449,622.704C383.051,619.617 377.679,617.849 373.367,614.696C364.269,608.042 361.95,601.211 361.371,595.514C359.645,578.54 366.396,568.58 367.724,566.621C370.206,562.958 363.466,563.659 360.542,555.484C356.547,544.313 359.801,534.557 361.479,528.495C362.324,525.444 360.672,525.823 358.589,525.202C343.072,520.573 339.338,505.466 338.981,504.333C338.199,501.85 337.085,502.333 334.449,501.683C323.409,498.962 311.195,490.388 310.917,474.503ZM356.885,489.607C356.894,489.538 357.405,488.067 356.956,486.364C356.92,486.227 356.68,485.317 356.181,484.773C352.305,480.552 345.21,484.905 344.447,493.496C344.095,497.457 345.708,497.663 349.469,496.395C355.819,494.255 356.459,490.702 356.885,489.607ZM460.444,512.404C458.329,513.761 457.977,514.022 458.736,516.416C458.79,516.586 459.356,518.373 459.408,518.549C459.881,520.143 459.795,520.918 461.369,520.368C461.734,520.24 461.681,518.065 463.932,512.532C464.326,511.565 464.849,511.494 464.192,510.67C463.539,509.852 461.511,511.583 460.444,512.404ZM464.682,640.335L465.495,640.538C465.765,640.514 465.843,641.092 466.113,641.068C466.723,641.012 466.6,637.116 468.436,626.49C468.616,625.444 470.617,612.745 470.805,611.549C471.31,608.346 468.767,608.359 466.459,607.63C465.351,607.28 461.86,605.812 460.756,606.776C460.145,607.31 458.147,613.152 456.759,616.607C453.839,623.87 454.804,624.091 455.142,624.679C458.541,630.592 461.035,633.288 464.682,640.335ZM476.174,609.463C475.527,613.21 475.416,613.184 475.484,613.505C475.73,614.665 477.278,614.218 477.436,614.172C479.143,613.679 496.256,607.444 502.636,603.761C506.721,601.402 511.042,599.568 515.624,594.612C516.738,593.407 524.448,585.066 520.192,574.616C518.485,570.426 515.768,567.44 513.51,567.652C513.096,567.691 492.291,572.294 486.618,574.768C478.42,578.344 459.569,589.102 457.294,590.117C456.151,590.627 456.08,590.488 455.142,591.267C454.408,591.877 454.503,592.126 455.227,592.721C457.083,594.249 463.136,594.321 463.074,598.495C463.071,598.661 462.341,600.704 464.449,601.603C468.835,603.475 475.482,604.847 476.05,606.68C476.408,607.833 476.196,607.85 476.174,609.463ZM405.426,551.466L405.623,552.385C405.813,552.472 405.39,552.925 405.58,553.012C405.651,553.044 410.801,551.54 411.228,551.144C412.054,550.379 411.37,547.706 409.245,549.016C406.197,550.896 406.126,550.75 405.88,550.938C405.696,551.079 405.61,551.325 405.426,551.466ZM374.868,455.455C374.126,449.157 373.841,449.168 372.541,447.467C371.45,446.039 369.45,443.262 369.108,442.843C366.766,439.975 361.298,437.689 360.548,437.376C353.089,434.258 347.732,433.478 347.515,433.432C335.265,430.818 326.026,435.561 321.682,440.65C320.826,441.653 314.878,448.621 316.847,456.409C317.999,460.968 319.772,456.728 324.556,455.856C334.346,454.073 338.3,463.024 336.197,469.405C333.434,477.785 322.825,476.689 319.443,472.564C319.288,472.376 317.626,470.349 316.573,471.542C316.408,471.729 316.2,474.495 316.476,476.503C318.375,490.309 331.495,495.026 333.423,495.72C337.01,497.009 338.68,497.406 338.857,494.545C338.913,493.649 339.277,487.761 341.852,483.73C345.708,477.698 355.15,475.127 360.234,480.74C363.546,484.397 362.409,490.558 362.159,491.403C359.143,501.633 346.381,502.29 345.694,502.834C345.576,502.928 345.15,504.021 345.168,504.524C345.204,505.54 347.59,511.003 350.779,514.223C351.234,514.682 354.893,518.557 361.579,520.152C364.989,520.966 364.177,518.015 369.131,508.311C369.629,507.335 376.37,492.48 387.436,487.369C396.807,483.041 398.607,484.261 397.984,482.45C397.528,481.121 394.347,479.499 393.727,479.133C380.412,471.27 376.717,467.346 374.868,455.455ZM433.62,560.218C431.458,560.263 431.463,560.205 431.286,560.267C430.872,560.412 430.619,560.842 430.244,561.069C429.817,561.327 426.731,562.126 426.422,562.206C426.422,562.206 415.074,565.39 413.582,565.016C410.975,564.361 412.352,562.663 412.491,562.493C413.284,561.515 413.63,562.214 428.459,558.338C429.911,557.959 429.92,558.227 430.612,558.313C430.925,558.352 431.26,558.245 431.558,558.348C432.042,558.514 432.413,558.932 432.897,559.098C432.809,557.793 432.661,557.6 433.758,556.909C434.544,556.414 444.215,553.914 446.494,553.476C449.907,552.819 450.12,552.657 451.544,549.508C451.582,549.423 452.194,547.549 452.195,547.517C452.2,547.373 452.012,547.293 451.941,547.167C451.794,546.904 451.829,546.455 451.545,546.354C450.88,546.119 450.048,547.672 449.966,547.824C449.055,549.525 449.321,549.895 447.505,550.514C446.258,550.939 444.467,550.868 443.566,550.381C442.401,549.753 441.556,548.58 440.501,548.579C439.191,548.578 439.098,549.972 437.355,551.304C434.531,553.462 433.712,551.808 430.887,553.969C427.59,556.491 427.239,555.688 424.452,556.077C421.705,556.461 420.348,559.336 416.235,556.945C413.304,555.241 411.157,556.641 403.439,558.204C402.706,558.352 395.955,559.719 394.324,560.293C393.589,560.551 393.589,560.672 393.654,561.451C393.8,563.193 394.694,562.317 396.354,562.839C399.446,563.811 399.343,564.091 434.375,576.839C438.352,578.286 439.063,578.858 440.465,578.434C441.732,578.05 441.281,577.603 441.979,575.626C442.452,574.287 442.843,574.074 441.789,573.102C441.049,572.419 440.928,572.805 439.511,572.902C435.136,573.2 436.28,570.735 437.074,570.105C439.392,568.267 443.841,569.244 444.957,566.634C445.278,565.884 445.446,565.81 444.939,565.183C444.409,564.527 444.345,564.489 443.521,564.665C436.172,566.244 427.811,570.152 425.78,568.195C423.467,565.967 428.237,564.975 428.575,564.905C437.97,562.952 437.819,562.379 442.458,561.317C444.905,560.756 447.061,560.882 448.209,558.406C448.283,558.246 449.304,556.044 446.594,556.91C442.55,558.201 442.531,558.051 438.41,559.155C436.36,559.705 435.241,560.376 434.504,560.38C434.205,560.381 433.92,560.216 433.62,560.218ZM448.251,430.404C448.162,430.978 447.254,433.123 449.22,434.882C452.193,437.541 456.495,428.82 451.533,428.259C450.482,428.141 449.733,428.575 449.597,428.654C448.981,429.012 449.094,429.114 448.251,430.404ZM409.318,630.488C409.21,633.011 409.33,633 408.932,635.516C408.74,636.732 408.311,637.212 409.53,637.42C411.028,637.676 410.91,637.093 414.564,634.587C415.037,634.263 420.313,630.645 420.431,630.447C420.502,630.327 421.092,629.335 420.361,628.708C419.865,628.283 419.683,628.836 412.413,626.856C412.187,626.794 410.189,626.25 409.558,627.522C409.452,627.735 409.541,627.737 409.318,630.488ZM440.846,487.837C440.849,488.184 441.089,488.1 441.091,488.458C441.097,489.242 440.838,489.158 440.856,489.219C440.921,489.432 441.236,489.452 441.43,489.563C442.504,490.174 442.605,490.284 443.752,491.164C450.419,496.282 453.693,504.353 453.715,504.4C455.205,507.549 455.404,509.08 458.423,507.357C465.426,503.36 465.006,497.071 465.493,493.499C466.153,488.652 470.371,489.779 474.139,486.141C480.91,479.604 479.261,469.019 476.319,464.62C475.875,463.956 473.218,459.982 468.564,458.314C464.345,456.802 464.762,459.084 464.183,461.425C462.748,467.233 459.86,472.189 459.134,473.258C452.267,483.372 442.13,487.278 440.846,487.837ZM456.126,438.38L456.251,439.764C456.416,439.793 456.475,440.052 456.64,440.082C459.567,440.599 463.031,439.929 463.576,439.823C465.674,439.418 473.24,436.844 477.05,430.232C481.262,422.924 482.078,412.227 474.447,404.552C471.419,401.506 469.946,400.749 469.492,400.515C464.454,397.925 460.649,397.68 458.502,397.596C455.184,397.467 456.965,399.554 456.767,403.511C456.534,408.17 454.768,411.71 450.751,414.83C445.857,418.633 438.197,418.561 435.313,413.613C430.25,404.925 436.719,396.573 445.598,393.732C446.729,393.37 447.183,393.649 447.262,392.454C447.33,391.443 446.708,391.097 445.86,390.193C444.74,389.002 442.077,385.628 434.374,382.838C420.381,377.769 410.16,387.383 409.828,387.779C408.558,389.294 410.443,390.127 410.63,390.209C411.07,390.404 412.857,390.695 415.685,393.295C424.767,401.642 421.433,418.252 409.424,415.844C404.55,414.867 401.672,410.345 401.231,409.652C397.534,403.843 399.729,396.91 399.067,395.689C398.976,395.522 398.752,395.471 398.622,395.332C398.188,394.867 398.154,394.863 397.522,394.941C391.778,395.646 384.657,399.794 380.92,403.887C378.474,406.565 373.802,413.566 372.338,420.465C370.091,431.055 372.105,435.323 373.295,438.614C373.485,439.14 373.588,439.712 373.885,440.187C374.029,440.416 375.115,440.604 375.399,440.394C375.956,439.983 375.849,434.334 382.363,429.316C391.158,422.542 404.916,427.475 405.463,439.501C405.851,448.048 398.516,455.123 387.527,454.222C385.436,454.05 381.216,452.793 380.653,452.96C380.496,453.007 380.451,453.221 380.332,453.333C379.625,453.998 379.827,454.15 380.375,456.526C382.706,466.638 389.403,469.314 394.348,472.735C401.265,477.52 405.279,479.906 403.931,484.636C402.28,490.43 393.315,488.356 384.577,495.593C378.556,500.58 374.305,509.5 373.249,511.374C372.99,511.833 365.451,528.396 364.154,539.461C364.063,540.234 362.552,547.419 365.28,553.602C370.068,564.458 382.893,559.126 383.628,558.892C392.709,556.004 400.403,549.794 402.861,547.967C403.042,547.832 404.816,546.514 405.012,546.152C405.707,544.876 404.238,542.742 404.421,541.485C404.795,538.922 407.339,540.263 407.576,540.388C408.397,540.821 409.161,542.591 411.452,543.611C413.908,544.704 414.486,544.376 416.211,548.618C416.346,548.95 417.658,552.175 418.518,552.459C418.696,552.518 420.226,553.023 420.679,551.569C421.407,549.227 420.062,545.815 419.877,545.348C419.62,544.696 418.032,541.755 419.463,540.455C419.809,540.14 421.646,539.692 422.677,541.371C424.577,544.468 425.422,550.154 425.621,550.423C426.64,551.806 428.229,550.867 428.569,549.521C429.376,546.322 425.968,540.042 426.145,538.439C426.17,538.21 426.396,536.166 428.666,537.065C430.206,537.675 432.018,542.226 432.519,544.496C432.972,546.549 432.918,546.572 433.116,546.846C434.289,548.476 436.754,546.686 435.498,542.501C433.955,537.362 431.316,534.797 432.455,533.467C433.907,531.772 435.886,533.674 436.098,533.877C436.548,534.31 443.103,544.988 444.415,545.637C448.828,547.82 447.325,538.573 437.25,530.821C434.492,528.7 428.521,524.178 413.52,527.587C406.035,529.288 383.054,539.821 380.51,539.909C378.34,539.984 376.738,537.458 380.517,535.532C385.032,533.231 386.061,533.994 387.09,530.389C387.334,529.532 387.177,529.504 389.798,519.578C390.04,518.662 390.519,513.825 393.685,515.107C396.105,516.088 394.435,520.202 392.856,525.603C392.086,528.238 392.099,528.239 392.025,528.466C391.743,529.337 391.356,529.419 391.948,530.126C392.502,530.787 392.635,530.598 393.451,530.306C394.361,529.982 397.531,528.349 403.393,526.212C403.535,526.16 416.079,521.075 426.548,522.085C431.007,522.516 432.595,524.046 436.301,521.23C436.475,521.097 441.08,517.065 445.249,519.878C445.319,519.925 449.914,523.91 446.844,528.713C445.987,530.054 445.458,529.891 445.58,531.49C445.714,533.237 447.997,533.649 450.23,539.608C452.1,544.599 454.148,539.706 454.273,539.407C458.039,530.411 457.92,529.37 457.816,528.455C457.657,527.062 456.069,524.316 453.707,517.422C447.591,499.571 441.004,495.214 439.164,493.998C435.434,491.531 430.855,490.106 431.203,487.453C431.783,483.032 447.845,484.53 457.047,465.286C460.416,458.239 460.977,447.318 459.179,445.939C457.786,444.871 455.881,446.212 450.374,443.757C445.764,441.701 444.546,443.446 438.511,443.091C429.547,442.563 425.08,441.051 417.473,435.533C415.459,434.071 413.061,431.226 413.077,429.5C413.092,427.926 415.204,425.55 418.389,428.614C422.442,432.512 426.61,438.059 441.54,437.848C445.161,437.797 443.017,435.792 442.648,433.477C440.961,422.871 454.999,420.542 458.442,427.532C458.657,427.969 459.753,430.196 458.855,433.599C458.743,434.025 458.304,435.689 456.126,438.38ZM439.749,475.608C439.678,475.684 439.175,477.532 434.488,478.424C428.113,479.638 422.19,475.814 421.528,474.484C420.412,472.246 422.285,470.349 424.603,471.215C426.795,472.034 429.647,474.598 434.369,473.091C434.518,473.043 437.656,471.517 439.193,472.839C439.895,473.443 439.938,474.319 439.945,474.462C439.963,474.849 439.731,475.221 439.749,475.608ZM427.605,455.785C428.085,455.743 428.039,455.598 428.506,455.557C428.583,455.55 428.98,455.515 429.467,455.621C431.688,456.104 431.745,459.633 427.455,461.398C422.215,463.554 418.482,462.003 415.496,460.507C410.91,458.208 411.77,452.719 416.595,455.335C421.731,458.118 422.223,458.408 427.605,455.785ZM440.422,455.89C445.749,458.282 446.993,458.675 450.326,456.239C454.054,453.513 456.817,457.838 452.218,461.062C445.689,465.639 434.002,459.771 438.324,456.264C439.089,455.644 440.421,455.891 440.422,455.89ZM439.162,407.482C439.198,407.777 438.976,409.428 440.152,410.79C442.62,413.646 446.335,411.244 446.781,410.956C446.92,410.866 452.066,408.531 451.323,401.52C450.973,398.215 449.423,398.17 447.542,398.662C443.873,399.621 441.221,402.57 440.996,402.892C439.552,404.953 439.654,405.018 439.162,407.482ZM391.535,448.809C392.411,448.605 392.456,448.815 394.652,447.855C401.063,445.055 399.83,438.549 399.514,437.496C397.574,431.045 389.88,430.746 386.368,433.308C381.98,436.51 381.114,439.573 380.339,442.457C379.865,444.22 379.252,446.049 382.487,447.527C386.44,449.334 389.408,448.859 391.535,448.809ZM322.429,467.554C323.718,468.954 323.583,469.169 325.388,469.813C325.747,469.941 328.214,470.821 330.095,469.069C332.583,466.75 331.176,459.999 324.574,461.73C322.987,462.146 321.373,463.509 321.22,464.438C320.933,466.174 321.55,466.042 322.429,467.554ZM466.601,579.479C466.389,579.336 466.613,578.88 466.4,578.737C465.826,578.353 458.634,581.097 453.461,582.333C446.08,584.097 444.324,585.482 440.61,584.177C438.607,583.473 399.388,569.42 394.523,567.443C384.952,563.553 384.748,563.794 381.508,564.536C375.622,565.884 374.822,564.671 372.772,567.682C370.415,571.145 359.927,592.039 371.048,605.868C371.653,606.62 374.446,610.093 380.685,613.116C385.693,615.543 396.797,617.681 407.498,620.506C421.461,624.191 421.514,623.924 435.475,627.586C444.456,629.943 444.755,629.854 445.542,629.619C446.817,629.24 446.891,628.982 452.18,614.378C453.797,609.914 453.752,609.921 455.395,605.465C457.06,600.951 458.474,599.434 455.602,598.285C454.912,598.008 420.086,584.794 414.613,583.121C397.349,577.843 395.804,579.839 393.607,578.338C392.233,577.4 391.93,573.698 396.515,574.368C412.978,576.774 420.286,580.137 440.551,587.36C446.92,589.63 447.767,589.349 448.376,589.147C449.806,588.674 459.685,582.876 463.614,581.685C465.105,581.233 465.081,581.209 466.422,580.429L466.601,579.479ZM404.929,397.55C404.849,399.19 403.965,404.969 407.359,408.635C410.786,412.337 415.734,410.871 415.266,404.517C414.754,397.568 407.923,394.609 406.563,394.944C404.912,395.35 405.427,395.927 404.929,397.55ZM440.513,527.456C440.848,527.428 441.177,527.619 441.511,527.591C444.209,527.368 443.664,521.985 439.379,524.355C438.139,525.04 438.698,526.186 438.771,526.335C439.028,526.863 439.145,526.732 440.513,527.456Z" style="fill:rgb(29,60,233);"/>
                </g>
                <g transform="matrix(2.282607,0,0,2.391494,-1424.70148,-896.563136)">
                    <path d="M440.422,455.89C445.749,458.282 446.993,458.675 450.326,456.239C454.054,453.513 456.817,457.838 452.218,461.062C445.689,465.639 434.002,459.771 438.324,456.264C439.089,455.644 440.421,455.891 440.422,455.89ZM439.749,475.608C439.678,475.684 439.175,477.532 434.488,478.424C428.113,479.638 422.19,475.814 421.528,474.484C420.412,472.246 422.285,470.349 424.603,471.215C426.795,472.034 429.647,474.598 434.369,473.091C434.518,473.043 437.656,471.517 439.193,472.839C439.895,473.443 439.938,474.319 439.945,474.462C439.963,474.849 439.731,475.221 439.749,475.608ZM427.605,455.785C428.085,455.743 428.039,455.598 428.506,455.557C428.583,455.55 428.98,455.515 429.467,455.621C431.688,456.104 431.745,459.633 427.455,461.398C422.215,463.554 418.482,462.003 415.496,460.507C410.91,458.208 411.77,452.719 416.595,455.335C421.731,458.118 422.223,458.408 427.605,455.785Z" style="fill:rgb(253,248,252);"/>
                </g>
                <g transform="matrix(2.282607,0,0,2.391494,-1424.70148,-896.563136)">
                    <path d="M501.441,503.15C502.163,503.004 510.126,501.4 510.471,501.342C514.314,500.693 550.35,493.82 550.46,493.841C550.618,493.871 550.545,494.17 550.666,494.276C550.837,494.425 551.179,494.359 551.285,494.56C551.468,494.904 550.908,496.429 550.851,496.585C549.83,499.367 541.01,525.486 540.3,527.421C535.052,541.728 530.646,556.343 530.03,557.164C529.047,558.475 528.904,558.581 510.4,563.041C482.836,569.685 482.896,569.918 480.485,570.43C471.682,572.298 465.246,574.098 462.561,574.762C449.554,577.974 449.633,578.23 448.499,578.493C448.323,578.534 446.533,578.949 446.466,577.502C446.455,577.255 447.143,575.569 447.21,575.404C450.839,566.509 454.213,555.187 455.583,551.532C459.472,541.156 462.026,532.562 469.456,512.483C470.801,508.85 471.563,509.112 477.579,507.905C499.547,503.5 499.539,503.562 501.441,503.15Z" style="fill:rgb(254,251,253);"/>
                </g>
                <g transform="matrix(2.282607,0,0,2.391494,-1424.70148,-896.563136)">
                    <path d="M439.749,475.608C439.678,475.684 439.175,477.532 434.488,478.424C428.113,479.638 422.19,475.814 421.528,474.484C420.412,472.246 422.285,470.349 424.603,471.215C426.795,472.034 429.647,474.598 434.369,473.091C434.518,473.043 437.656,471.517 439.193,472.839C439.895,473.443 439.938,474.319 439.945,474.462C439.963,474.849 439.731,475.221 439.749,475.608Z" style="fill:rgb(29,60,233);"/>
                </g>
                <g transform="matrix(2.282607,0,0,2.391494,-1424.70148,-896.563136)">
                    <path d="M427.605,455.785C428.085,455.743 428.039,455.598 428.506,455.557C428.583,455.55 428.98,455.515 429.467,455.621C431.688,456.104 431.745,459.633 427.455,461.398C422.215,463.554 418.482,462.003 415.496,460.507C410.91,458.208 411.77,452.719 416.595,455.335C421.731,458.118 422.223,458.408 427.605,455.785Z" style="fill:rgb(29,60,233);"/>
                </g>
                <g transform="matrix(2.282607,0,0,2.391494,-1424.70148,-896.563136)">
                    <path d="M440.422,455.89C445.749,458.282 446.993,458.675 450.326,456.239C454.054,453.513 456.817,457.838 452.218,461.062C445.689,465.639 434.002,459.771 438.324,456.264C439.089,455.644 440.421,455.891 440.422,455.89Z" style="fill:rgb(29,60,233);"/>
                </g>
                <g transform="matrix(2.282607,0,0,2.391494,-1424.70148,-896.563136)">
                    <path d="M432.897,559.098C433.138,559.472 433.379,559.845 433.62,560.218C431.458,560.263 431.463,560.205 431.286,560.267C430.872,560.412 430.619,560.842 430.244,561.069C429.817,561.327 426.731,562.126 426.422,562.206C426.422,562.206 415.074,565.39 413.582,565.016C410.975,564.361 412.352,562.663 412.491,562.493C413.284,561.515 413.63,562.214 428.459,558.338C429.911,557.959 429.92,558.227 430.612,558.313C430.925,558.352 431.26,558.245 431.558,558.348C432.042,558.514 432.413,558.932 432.897,559.098Z" style="fill:rgb(29,60,233);"/>
                </g>
                <g transform="matrix(0.954469,0,0,1,-1305.529823,-688.691178)">
                    <path d="M912.143,1131.886C912.86,1131.882 913.541,1132.277 914.258,1132.273C916.02,1132.263 918.696,1130.658 923.598,1129.345C933.455,1126.704 933.5,1127.062 943.169,1123.974C949.652,1121.904 947.21,1127.171 947.033,1127.553C944.287,1133.475 939.13,1133.173 933.279,1134.513C922.185,1137.055 922.546,1138.424 900.079,1143.095C899.27,1143.263 887.863,1145.634 893.395,1150.963C898.252,1155.642 918.246,1146.298 935.823,1142.522C937.793,1142.099 937.945,1142.192 939.213,1143.76C940.426,1145.258 940.023,1145.436 939.255,1147.231C936.587,1153.471 925.948,1151.134 920.404,1155.531C918.505,1157.038 915.768,1162.931 926.233,1162.219C929.621,1161.989 929.91,1161.066 931.679,1162.697C934.2,1165.022 933.266,1165.531 932.134,1168.734C930.465,1173.461 931.542,1174.531 928.514,1175.449C925.16,1176.465 923.459,1175.096 913.95,1171.636C830.171,1141.148 830.416,1140.48 823.022,1138.154C819.052,1136.905 816.914,1139.001 816.565,1134.834C816.409,1132.973 816.409,1132.683 818.168,1132.065C822.069,1130.693 838.212,1127.424 839.965,1127.069C858.422,1123.332 863.557,1119.983 870.567,1124.059C880.402,1129.777 883.647,1122.901 890.218,1121.984C896.883,1121.053 897.722,1122.974 905.607,1116.942C912.363,1111.774 914.321,1115.729 921.076,1110.567C925.244,1107.383 925.466,1104.048 928.599,1104.052C931.122,1104.055 933.142,1106.858 935.929,1108.362C938.085,1109.525 942.367,1109.696 945.348,1108.679C949.691,1107.199 949.056,1106.314 951.235,1102.246C951.43,1101.882 953.419,1098.168 955.01,1098.731C955.69,1098.972 955.607,1100.045 955.959,1100.674C956.127,1100.975 956.576,1101.167 956.565,1101.511C956.563,1101.589 955.1,1106.071 955.008,1106.273C951.603,1113.805 951.093,1114.192 942.932,1115.762C937.481,1116.81 914.353,1122.788 912.474,1123.972C909.849,1125.626 910.203,1126.086 910.414,1129.209C909.257,1128.811 908.369,1127.812 907.212,1127.414C906.498,1127.169 905.698,1127.423 904.949,1127.33C903.296,1127.125 903.274,1126.483 899.801,1127.391C864.337,1136.66 863.511,1134.987 861.613,1137.326C861.282,1137.734 857.987,1141.794 864.223,1143.36C867.791,1144.256 894.929,1136.641 894.93,1136.641C895.668,1136.449 903.049,1134.538 904.069,1133.922C904.966,1133.379 905.572,1132.349 906.562,1132.003C906.984,1131.855 906.974,1131.994 912.143,1131.886Z" style="fill:white;"/>
                </g>
            </g>
        </g>
    </g>
</svg>
