<?xml version="1.0" encoding="UTF-8" standalone="no"?>
<!DOCTYPE svg PUBLIC "-//W3C//DTD SVG 1.1//EN" "http://www.w3.org/Graphics/SVG/1.1/DTD/svg11.dtd">
<svg width="100%" height="100%" viewBox="0 0 484 614" version="1.1" xmlns="http://www.w3.org/2000/svg" xmlns:xlink="http://www.w3.org/1999/xlink" xml:space="preserve" xmlns:serif="http://www.serif.com/" style="fill-rule:evenodd;clip-rule:evenodd;stroke-linejoin:round;stroke-miterlimit:2;">
    <g transform="matrix(1,0,0,1,-1378.297852,-0)">
        <g id="Fondo">
        </g>
        <g id="seo" transform="matrix(0.855124,0,0,0.937405,1989.71128,-2.812214)">
            <rect x="-715" y="3" width="566" height="655" style="fill:none;"/>
            <clipPath id="_clip1">
                <rect x="-715" y="3" width="566" height="655"/>
            </clipPath>
            <g clip-path="url(#_clip1)">
                <g transform="matrix(2.941593,0,0,2.683394,-2533.12394,-192.994587)">
                    <path d="M679.773,246.643C679.728,249.268 679.693,254.867 677.112,266.414C675.024,275.75 667.894,287.054 666.846,288.715C661.975,296.438 662.25,296.61 657.696,302.641C655.226,305.913 654.221,306.175 649.39,303.782C645.156,301.685 646.857,305.068 646.975,305.261C647.179,305.593 650.849,309.939 652.655,311.285C653.026,311.561 655.219,312.786 655.354,314.512C655.541,316.895 652.789,317.075 652.48,317.095C652.118,317.119 638.469,317.262 634.468,316.785C631.02,316.374 630.431,316.052 623.033,307.937C618.932,303.439 621.105,302.239 624.238,296.369C625.612,293.793 623.441,293.195 622.399,292.701C620.286,291.699 615.583,291.019 619.727,286.723C641.982,263.653 641.439,255.097 641.904,251.556C642.891,244.035 642.568,244.015 643.671,236.527C644.767,229.085 647.743,220.872 647.74,220.502C647.721,218.112 642.51,215.428 640.76,207.445C639.497,201.688 639.397,195.449 650.938,184.967C651.066,184.851 651.09,184.895 652.566,183.57C655.983,180.501 651.803,179.927 649.4,175.562C644.52,166.697 648.008,163.957 644.548,162.395C642.545,161.491 635.743,159.385 631.704,150.414C628.784,143.929 630.121,139.389 630.393,138.467C632.174,132.421 633.999,132.861 633.615,129.487C633.517,128.62 631.828,122.075 636.368,114.419C638.521,110.788 643.835,106.404 649.437,105.221C651.469,104.792 662.996,102.358 674.704,111.187C676.003,112.167 675.97,113.094 677.336,112.23C678.621,111.418 677.9,111.059 677.932,109.552C677.962,108.116 678.684,103.903 679.952,100.677C682.183,94.999 688.836,86.146 699.351,83.021C704.301,81.549 704.363,81.947 709.504,81.824C714.416,81.706 712.969,77.56 723.463,75.296C732.29,73.393 742.973,78.167 747.525,84.48C749.237,86.855 749.194,86.862 750.579,89.453C751.997,92.105 754.498,89.921 762.613,94.304C776.284,101.688 777.733,121.703 762.694,130.824C761.135,131.771 758.482,132.363 758.86,133.463C759.615,135.656 763.161,134.366 768.858,140.157C772.206,143.561 776.917,151.962 772.714,162.59C769.031,171.9 765.044,175.546 765.884,179.4C769.099,194.143 757.574,195.302 755.622,197.608C754.614,198.798 752.396,204.868 746.644,213.6C733.14,234.099 722.774,223.86 712.729,213.194C712.595,213.051 711.148,211.515 710.29,213.354C709.954,214.071 710.022,214.092 706.628,222.552C705.343,225.757 704.48,226.889 706.725,229.29C710.138,232.943 710.144,232.933 716.752,241.31C719.346,244.597 723.697,251.118 724.033,251.759C727.105,257.625 728.797,262.943 727.469,278.497C726.997,284.024 724.732,293.217 724.42,294.481C723.768,297.128 723.735,299.967 719.503,299.545C717.801,299.375 717.777,299.233 717.459,299.42C716.084,300.23 716.899,300.658 718.104,301.725C718.476,302.054 724.435,308.028 725.107,308.843C725.62,309.465 728.36,312.287 726.809,313.786C725.928,314.638 725.75,314.707 711.479,313.781C707.999,313.555 705.849,313.242 699.523,313.031C692.561,312.798 690.796,312.584 691.572,308.514C693.102,300.492 693.925,299.949 692.573,299.398C691.014,298.764 687.811,299.71 688.367,295.482C689.012,290.57 692.675,276.224 692.927,270.534C693.122,266.139 693.179,266.005 690.921,262.242C688.267,257.818 688.243,257.859 685.419,253.554C684.492,252.14 682.228,248.805 681.634,247.345C681.583,247.221 681.134,246.119 680.5,246.102C680.198,246.094 680.075,246.651 679.773,246.643ZM654.485,164.09C651.845,164.141 650.761,163.834 650.996,166.459C651.57,172.844 656.219,178.246 658.466,178.074C660.507,177.918 669.572,168.957 679.423,166.262C680.714,165.909 684.041,165.198 684.199,165.051C684.92,164.381 683.909,162.561 683.804,162.371C683.144,161.185 678.811,152.06 678.731,143.494C678.694,139.532 679.395,137.683 675.451,138.126C670.425,138.69 672.133,144.411 670.46,145.439C666.983,147.574 665.605,137.633 672.561,134.634C676.535,132.92 678.952,135.225 679.497,130.5C679.792,127.942 679.718,127.952 680.257,125.452C680.832,122.786 680.885,121.676 676.837,118.099C672.303,114.094 664.253,109.729 659.565,109.116C658.016,108.914 648.297,106.812 641.178,115.239C636.619,120.635 637.42,126.687 637.914,127.163C639.252,128.453 643.215,124.383 649.504,128.494C654.811,131.963 652.617,143.205 643.454,141.776C642.92,141.693 640.009,141.239 637.605,138.387C636.757,137.38 636.726,137.103 635.454,137.433C634.084,137.788 631.933,149.337 641.672,156.255C645.797,159.186 646.738,158.415 647.092,158.123C647.733,157.597 649.953,147.093 659.474,147.818C663.695,148.139 668.48,153.243 664.554,159.539C663.023,161.992 658.301,163.67 656.571,163.894C655.878,163.984 655.178,164 654.485,164.09ZM753.078,134.101C753.075,133.724 752.816,133.817 752.813,133.453C752.808,132.869 753.089,133.015 753.069,132.977C752.826,132.513 749.771,132.593 749.482,132.6C743.665,132.752 742.232,129.401 739.528,129.2C738.854,129.149 726.222,130.108 716.86,118.207C716.639,117.925 714.475,115.175 715.851,113.844C718.862,110.93 720.863,121.013 732.607,124.11C735.789,124.949 737.465,125.799 737.252,122.508C737.212,121.895 736.925,117.472 740.543,115.576C747.494,111.931 752.69,119.13 749.974,123.735C748.206,126.732 747.64,126.24 747.511,126.508C747.45,126.634 746.955,127.656 747.662,128.254C747.694,128.281 748.949,128.634 749.439,128.716C763.741,131.125 774.844,115.628 766.034,102.844C762.213,97.298 755.534,95.887 754.469,95.662C754.261,95.618 752.385,95.222 751.991,96.595C751.921,96.839 752.192,100.298 750.885,102.684C746.183,111.269 737.572,109.862 734.851,106.226C733.17,103.979 730.859,94.712 742.507,91.523C745.085,90.817 746.667,90.901 745.297,88.606C743.205,85.1 739.989,82.976 739.428,82.606C729.648,76.148 719.953,79.915 717.341,82.38C716.594,83.084 717.032,83.271 717.045,83.59C717.052,83.763 716.884,83.952 716.967,84.105C717.074,84.301 717.337,84.354 717.526,84.473C717.742,84.608 717.971,84.725 718.183,84.867C725.533,89.804 723.988,98.332 721.358,101.387C716.79,106.692 705.986,102.752 707.333,91.48C707.785,87.7 708.212,87.798 708.242,87.471C708.299,86.86 707.472,85.946 707.371,85.912C706.134,85.493 699.736,86.527 695.375,89.289C692.011,91.419 680.846,98.349 682.194,115.611C682.272,116.613 683.297,118.453 684.648,115.626C684.843,115.218 685.854,113.1 688.491,111.487C697.62,105.903 704.437,112.471 705.586,114.447C709.323,120.873 705.439,125.389 705.458,125.496C705.692,126.835 706.156,126.633 707.469,126.268C719.14,123.027 727.696,131.801 730.03,136.732C733.264,143.564 731.548,146.522 733.581,147.259C735.939,148.115 737.022,144.881 737.282,144.383C740.03,139.132 744.881,136.355 747.513,135.528C750.258,134.666 750.353,135.085 753.078,134.101ZM739.322,157.538C743.622,172.745 760.085,174.144 767.377,163.42C774.156,153.45 768.079,138.475 754.5,138.397C745.782,138.346 739.524,146.082 739.117,152.468C738.955,155.01 739.049,155 739.322,157.538ZM757.928,158.498C758.348,155.687 758.307,155.696 758.382,155.463C760.006,150.418 765.149,149.681 765.317,155.504C765.513,162.316 760.113,165.049 758.344,160.561C757.908,159.457 757.936,158.539 757.928,158.498ZM741.541,121.503C741.604,121.821 741.554,122.155 741.617,122.473C742.411,126.466 747.923,122.029 745.5,119.501C745.336,119.33 744.277,118.225 742.541,119.548C741.705,120.185 741.961,120.358 741.541,121.503ZM696.693,131.272C696.545,131.236 696.552,130.955 696.404,130.919C696.01,130.82 692.75,131.765 687.388,128.7C686.429,128.151 684.284,126.118 683.89,129.572C683.604,132.085 682.333,134.533 685.482,135.554C691.959,137.653 691.936,137.758 692.521,137.691C693.759,137.548 694.875,135.09 696.914,132.608L696.693,131.272ZM712.503,130.039C711.011,130.101 709.976,129.911 706.366,131.11C706.062,131.211 704.476,131.738 702.796,132.908C700.557,134.467 698.436,137.706 697.988,138.742C692.687,151.019 701.204,161.201 709.556,162.14C730.58,164.503 735.095,135.472 715.536,130.365C714.22,130.022 714.223,130.143 712.503,130.039ZM723.17,148.473C722.804,150.444 723.15,150.566 722.088,152.272C719.311,156.736 714.32,153.311 716.667,146.562C718.269,141.958 723.103,141.811 723.19,147.506C723.195,147.828 723.165,148.15 723.17,148.473ZM631.317,310.687C633.747,312.981 633.993,312.735 637.475,312.9C638.191,312.934 646.204,313.315 646.428,313.227C646.622,313.15 646.594,312.834 646.739,312.685C646.853,312.567 647.108,312.607 647.175,312.457C647.449,311.85 647.26,311.836 646.807,311.374C643.405,307.906 642.729,305.109 642.577,304.48C641.855,301.489 642.233,300.933 639.399,299.727C630.789,296.065 630.281,296.218 629.481,296.458C628.506,296.75 628.734,297.046 626.227,301.359C624.685,304.015 625.311,304.558 631.317,310.687ZM675.852,243.525C675.927,242.209 675.866,242.217 676.025,240.462C676.522,235.002 679.808,236.132 681.557,239.467C682.839,241.912 689.076,251.325 689.75,252.343C689.808,252.43 695.484,261.276 696.386,263.547C699.307,270.896 693.571,288.762 693.129,292.455C692.809,295.131 693.827,295.019 696.508,295.033C710.948,295.111 717.823,296.183 719.323,295.222C720.628,294.387 721.545,288.097 722.331,284.465C722.918,281.749 723.727,276.08 723.808,273.514C724.147,262.7 723.285,257.569 718.775,251.31C717.904,250.102 710.997,240.518 707.617,236.406C701.766,229.287 700.001,229.872 700.562,226.51C700.745,225.412 700.769,225.269 705.638,213.558C709.073,205.294 710.192,201.78 710.834,200.68C712.75,197.399 715.475,199.427 714.192,203.401C713.197,206.484 712.787,206.89 715.3,209.675C716.627,211.145 726.786,223.255 732.478,221.42C742.09,218.322 751.556,195.759 751.65,195.565C753.336,192.05 754.963,193.661 759.512,190.516C762.321,188.575 762.488,185.038 762.514,184.501C762.831,177.794 757.776,178.395 755.411,180.399C750.638,184.444 753.068,185.456 753.502,185.493C754.595,185.586 755.937,183.844 756.517,183.53C758.409,182.503 759.53,183.932 758.817,185.65C757.902,187.857 753.184,190.147 750.293,187.773C747.93,185.833 749.165,183.363 749.384,182.467C749.789,180.8 749.259,180.799 748.308,179.655C748.2,179.525 747.513,178.699 747.859,177.58C748.797,174.55 751.484,177.928 753.337,177.202C753.393,177.18 754.35,176.443 754.363,176.414C754.475,176.157 754.342,174.992 754.24,174.905C754.134,174.814 749.013,173.714 748.458,173.632C744.782,173.092 744.797,177.667 745.049,182.517C745.266,186.699 745.13,186.842 741.407,192.439C740.99,193.066 737.926,197.674 736.136,200.236C732.574,205.338 731.789,206.27 729.416,204.596C728.358,203.85 722.697,194.085 719.319,189.63C716.841,186.363 716.763,186.42 714.717,185.148C714.472,184.995 711.968,183.438 713.69,181.692C714.849,180.516 719.122,181.549 719.488,181.603C730.694,183.275 741.435,174.602 742.461,172.474C743.569,170.175 741.228,169.763 739.484,167.514C733.917,160.336 734.925,157.094 734.567,153.489C734.551,153.327 734.418,151.988 733.426,151.816C731.469,151.476 730.972,153.857 729.592,156.554C728.289,159.101 725.459,162.039 722.575,163.626C715.077,167.752 710.714,166.939 706.415,165.757C700.774,164.205 695.41,158.587 693.959,155.286C690.818,148.14 692.945,144.809 691.653,142.374C691.287,141.685 689.616,141.357 689.55,141.337C684.461,139.782 684.245,139.348 683.227,140.27C683.104,140.383 682.89,140.427 682.837,140.585C682.691,141.024 683.16,144.987 683.215,145.531C684.086,154.261 687.227,159.823 690.887,166.285C691.041,166.556 692.723,169.525 690.377,170.145C687.682,170.857 687.261,167.735 677.472,171.43C674.91,172.397 652.485,185.829 646.037,197.25C645.486,198.227 642.261,203.939 646.883,211.249C647.03,211.483 647.988,212.998 648.946,214.012C649.526,214.626 650.899,214.357 651.145,214.157C651.372,213.972 653.278,209.802 659.844,202.827C660.818,201.793 665.699,196.609 673.419,191.382C675.626,189.888 678.29,187.7 679.853,189.061C682.58,191.434 677.192,193.596 672.327,197.259C666.695,201.5 662.998,205.061 658.725,210.664C648.73,223.771 648.014,236.229 646.936,243.565C644.918,257.299 646.639,258.766 639.414,269.441C633.706,277.874 631.344,280.008 628.352,283.368C628.054,283.704 624.662,287.514 624.634,287.569C624.533,287.77 624.67,289.01 624.804,289.164C624.923,289.302 639.849,295.486 640.416,295.705C645.783,297.781 650.974,300.062 651.574,300.29C653.879,301.163 654.412,299.692 654.998,298.871C656.625,296.589 656.604,296.596 658.226,294.311C658.725,293.607 660.525,291.073 664.019,285.216C671.569,272.559 672.242,268.343 673.165,264.425C673.961,261.051 675.395,250.692 675.852,243.525ZM725.522,172.171C722.748,172.131 722.765,172.149 722.526,172.127C722.308,172.108 720.365,171.934 720.327,170.509C720.235,167.074 727.826,168.451 728.487,168.571C734.83,169.722 732.906,173.271 731.492,173.46C730.36,173.61 730.402,173.328 729.328,172.974C727.115,172.245 727.093,172.365 725.522,172.171ZM740.898,183.512C740.952,181.532 740.946,181.544 740.956,181.374C740.999,180.707 741.367,180.464 740.733,180.29C739.139,179.854 739.231,180.499 737.53,181.548C729.234,186.662 724.279,185.603 723.632,185.867C722.905,186.163 723.149,187.449 723.176,187.589C723.215,187.794 727.547,194.086 729.177,196.729C729.718,197.606 730.784,200.443 732.658,197.625C732.978,197.143 735.454,193.418 736.696,191.629C741.449,184.787 740.737,184.425 740.898,183.512ZM719.364,310.081C719.384,309.89 719.548,309.734 719.568,309.544C719.695,308.303 719.389,308.35 718.405,307.591C715.45,305.311 711.801,300.673 710.344,299.798C709.668,299.392 709.449,299.26 700.5,299.179C698.506,299.161 697.891,299.504 697.427,301.483C697.334,301.882 696.419,305.78 696.298,306.479C695.847,309.068 698.674,308.812 702.481,308.919C710.503,309.145 713.068,309.914 719.364,310.081ZM644.498,137.642C646.024,137.204 646.272,137.549 647.197,136.276C648.89,133.948 647.073,129.895 641.488,131.464C638.79,132.222 639.63,133.952 640.759,135.298C642.715,137.631 643.931,137.468 644.498,137.642ZM761.569,172.662C761.34,173.041 760.794,173.153 760.565,173.533C760.156,174.208 760.771,175.758 762.257,175.062C762.759,174.827 763.742,173.531 763.142,172.799C762.859,172.454 762.57,172.428 762.511,172.423C762.008,172.379 762.067,172.705 761.569,172.662ZM711.324,93.504C711.395,93.928 711.313,96.497 713.604,98.357C715.328,99.756 719.251,100.091 719.087,94.512C718.969,90.477 715.752,87.285 713.562,87.666C713.219,87.726 712.261,87.893 711.515,91.503C711.483,91.66 711.501,91.651 711.324,93.504ZM659.441,158.414C660.556,157.523 660.837,157.76 661.389,156.442C661.83,155.388 661.82,154.145 660.954,153.143C658.24,150.001 654.038,152.852 652.242,157.422C652.154,157.646 651.21,160.049 653.526,160.147C656.304,160.264 659.016,158.665 659.441,158.414ZM702.834,120.529C702.796,120.176 702.852,119.816 702.814,119.463C702.363,115.174 696.335,111.199 690.444,115.435C689.381,116.199 687.277,119.293 686.796,120.602C685.155,125.064 696.471,129.023 701.19,124.221C702.642,122.743 702.316,122.545 702.834,120.529ZM747.078,100.36C747.353,98.85 748.605,94.2 744.443,95.208C740.014,96.28 738.493,98.827 738.186,99.342C735.896,103.175 740.18,106.716 744.217,104.053C746.504,102.544 747.045,100.43 747.078,100.36Z" style="fill:rgb(29,60,233);"/>
                </g>
                <g transform="matrix(2.941593,0,0,2.683394,-2533.12394,-192.994587)">
                    <path d="M725.522,172.171C722.748,172.131 722.765,172.149 722.526,172.127C722.308,172.108 720.365,171.934 720.327,170.509C720.235,167.074 727.826,168.451 728.487,168.571C734.83,169.722 732.906,173.271 731.492,173.46C730.36,173.61 730.402,173.328 729.328,172.974C727.115,172.245 727.093,172.365 725.522,172.171Z" style="fill:rgb(29,60,233);"/>
                </g>
                <g transform="matrix(2.941593,0,0,2.683394,-2533.12394,-192.994587)">
                    <path d="M723.17,148.473C722.804,150.444 723.15,150.566 722.088,152.272C719.311,156.736 714.32,153.311 716.667,146.562C718.269,141.958 723.103,141.811 723.19,147.506C723.195,147.828 723.165,148.15 723.17,148.473Z" style="fill:rgb(29,60,233);"/>
                </g>
                <g transform="matrix(2.941593,0,0,2.683394,-2533.12394,-192.994587)">
                    <path d="M757.928,158.498C758.348,155.687 758.307,155.696 758.382,155.463C760.006,150.418 765.149,149.681 765.317,155.504C765.513,162.316 760.113,165.049 758.344,160.561C757.908,159.457 757.936,158.539 757.928,158.498Z" style="fill:rgb(29,60,233);"/>
                </g>
                <g transform="matrix(2.941593,0,0,2.683394,-2533.12394,-192.994587)">
                    <path d="M795.465,165.132C794.647,165.401 794.343,164.942 792.656,166.648C792.623,166.682 792.299,167.122 791.67,167.725C790.58,168.77 787.885,168.626 789.835,164.652C791.461,161.34 791.709,160.624 793.597,161.272C794.068,161.433 794.301,161.9 797.53,162.216C800.232,162.48 799.07,160.625 801.714,157.687C803.938,155.215 802.346,154.847 801.391,151.53C800.78,149.407 800.432,149.568 798.456,148.594C796.595,147.676 796.294,147.386 794.795,148.827C794.403,149.204 791.511,151.986 788.297,150.821C787.158,150.409 786.984,148.865 788.466,148.429C790.072,147.958 792.988,148.109 794.165,143.417C794.608,141.647 794.595,141.648 794.643,141.581C796.14,139.449 797.06,141.524 797.141,141.707C797.53,142.586 798.166,147.553 803.373,145.219C805.914,144.08 807.602,143.936 806.803,146.607C806.702,146.945 803.185,150.712 806.211,153.785C807.695,155.292 810.235,155.383 810.456,156.514C810.853,158.55 807.414,158.178 806.475,158.39C803.704,159.017 802.256,161.716 802.624,164.488C802.713,165.156 802.859,165.815 802.958,166.481C802.991,166.697 803.336,169.007 801.456,168.758C800.769,168.667 799.872,167.008 798.82,166.125C797.395,164.929 795.806,165.173 795.465,165.132Z" style="fill:rgb(29,60,233);"/>
                </g>
                <g transform="matrix(2.941593,0,0,2.683394,-2533.12394,-192.994587)">
                    <path d="M757.928,158.498C758.348,155.687 758.307,155.696 758.382,155.463C760.006,150.418 765.149,149.681 765.317,155.504C765.513,162.316 760.113,165.049 758.344,160.561C757.908,159.457 757.936,158.539 757.928,158.498Z" style="fill:rgb(29,60,233);"/>
                </g>
                <g transform="matrix(2.941593,0,0,2.683394,-2533.12394,-192.994587)">
                    <path d="M723.17,148.473C722.804,150.444 723.15,150.566 722.088,152.272C719.311,156.736 714.32,153.311 716.667,146.562C718.269,141.958 723.103,141.811 723.19,147.506C723.195,147.828 723.165,148.15 723.17,148.473Z" style="fill:rgb(29,60,233);"/>
                </g>
                <g transform="matrix(2.941593,0,0,2.683394,-2533.12394,-192.994587)">
                    <path d="M725.522,172.171C722.748,172.131 722.765,172.149 722.526,172.127C722.308,172.108 720.365,171.934 720.327,170.509C720.235,167.074 727.826,168.451 728.487,168.571C734.83,169.722 732.906,173.271 731.492,173.46C730.36,173.61 730.402,173.328 729.328,172.974C727.115,172.245 727.093,172.365 725.522,172.171Z" style="fill:rgb(29,60,233);"/>
                </g>
                <g transform="matrix(2.941593,0,0,2.683394,-2533.12394,-192.994587)">
                    <path d="M781.518,155.819C784.01,155.636 783.982,155.586 786.448,155.185C786.703,155.144 789.595,154.674 789.401,156.486C789.158,158.758 779.186,158.866 778.442,158.633C777.278,158.267 777.061,156.605 778.63,155.988C778.63,155.988 781.287,155.832 781.518,155.819Z" style="fill:rgb(29,60,233);"/>
                </g>
            </g>
        </g>
    </g>
</svg>
